<mxfile host="65bd71144e" modified="2021-01-13T13:02:08.855Z" agent="5.0 (Windows NT 10.0; Win64; x64) AppleWebKit/537.36 (KHTML, like Gecko) Code/1.52.1 Chrome/83.0.4103.122 Electron/9.3.5 Safari/537.36" version="13.10.0" etag="UG7vRdZZYqv7V-gGntQg" type="embed">
    <diagram id="-gxZ7zSGZgVWtbLPsJhr" name="Page-1">
        <mxGraphModel dx="1783" dy="1959" grid="1" gridSize="10" guides="1" tooltips="1" connect="1" arrows="1" fold="1" page="1" pageScale="1" pageWidth="827" pageHeight="1169" math="0" shadow="0">
            <root>
                <mxCell id="0"/>
                <mxCell id="1" parent="0"/>
                <mxCell id="lSefk6oyLwJzMAvR96mR-3" value="Rule" style="edgeStyle=orthogonalEdgeStyle;rounded=0;orthogonalLoop=1;jettySize=auto;html=1;exitX=1;exitY=0.5;exitDx=0;exitDy=0;" parent="1" source="lSefk6oyLwJzMAvR96mR-74" target="lSefk6oyLwJzMAvR96mR-2" edge="1">
                    <mxGeometry relative="1" as="geometry">
                        <mxPoint x="-40" y="50" as="sourcePoint"/>
                    </mxGeometry>
                </mxCell>
                <mxCell id="lSefk6oyLwJzMAvR96mR-20" style="edgeStyle=orthogonalEdgeStyle;rounded=0;orthogonalLoop=1;jettySize=auto;html=1;entryX=0;entryY=0.5;entryDx=0;entryDy=0;" parent="1" source="lSefk6oyLwJzMAvR96mR-2" target="lSefk6oyLwJzMAvR96mR-4" edge="1">
                    <mxGeometry relative="1" as="geometry"/>
                </mxCell>
                <mxCell id="lSefk6oyLwJzMAvR96mR-2" value="State :&lt;br&gt;Update rule" style="shape=parallelogram;perimeter=parallelogramPerimeter;whiteSpace=wrap;html=1;fixedSize=1;fontFamily=Helvetica;fontSize=12;align=center;fillColor=#ffffff;strokeColor=#0000FF;fontColor=#0000FF;" parent="1" vertex="1">
                    <mxGeometry x="40" y="20" width="120" height="60" as="geometry"/>
                </mxCell>
                <mxCell id="lSefk6oyLwJzMAvR96mR-4" value="State$Changed&lt;br&gt;No draw&lt;br&gt;update Rule List" style="whiteSpace=wrap;html=1;rounded=0;" parent="1" vertex="1">
                    <mxGeometry x="240" y="20" width="120" height="60" as="geometry"/>
                </mxCell>
                <mxCell id="lSefk6oyLwJzMAvR96mR-8" value="Metric" style="edgeStyle=orthogonalEdgeStyle;rounded=0;orthogonalLoop=1;jettySize=auto;html=1;entryX=0;entryY=0.5;entryDx=0;entryDy=0;" parent="1" source="lSefk6oyLwJzMAvR96mR-6" target="lSefk6oyLwJzMAvR96mR-7" edge="1">
                    <mxGeometry relative="1" as="geometry"/>
                </mxCell>
                <mxCell id="lSefk6oyLwJzMAvR96mR-6" value="Metric$changed" style="rounded=0;whiteSpace=wrap;html=1;" parent="1" vertex="1">
                    <mxGeometry x="270" y="300" width="120" height="60" as="geometry"/>
                </mxCell>
                <mxCell id="lSefk6oyLwJzMAvR96mR-10" style="edgeStyle=orthogonalEdgeStyle;rounded=0;orthogonalLoop=1;jettySize=auto;html=1;entryX=0;entryY=0.5;entryDx=0;entryDy=0;" parent="1" source="lSefk6oyLwJzMAvR96mR-7" target="lSefk6oyLwJzMAvR96mR-9" edge="1">
                    <mxGeometry relative="1" as="geometry"/>
                </mxCell>
                <mxCell id="lSefk6oyLwJzMAvR96mR-7" value="Rule :&lt;br&gt;Refresh metrics" style="shape=parallelogram;perimeter=parallelogramPerimeter;whiteSpace=wrap;html=1;fixedSize=1;fontFamily=Helvetica;fontSize=12;align=center;fillColor=#ffffff;strokeColor=#0000FF;fontColor=#0000FF;" parent="1" vertex="1">
                    <mxGeometry x="470" y="300" width="120" height="60" as="geometry"/>
                </mxCell>
                <mxCell id="lSefk6oyLwJzMAvR96mR-12" value="Rule" style="edgeStyle=orthogonalEdgeStyle;rounded=0;orthogonalLoop=1;jettySize=auto;html=1;" parent="1" source="lSefk6oyLwJzMAvR96mR-9" target="lSefk6oyLwJzMAvR96mR-11" edge="1">
                    <mxGeometry relative="1" as="geometry"/>
                </mxCell>
                <mxCell id="lSefk6oyLwJzMAvR96mR-9" value="Rule$refreshed" style="rounded=0;whiteSpace=wrap;html=1;" parent="1" vertex="1">
                    <mxGeometry x="670" y="300" width="120" height="60" as="geometry"/>
                </mxCell>
                <mxCell id="lSefk6oyLwJzMAvR96mR-14" value="" style="edgeStyle=orthogonalEdgeStyle;rounded=0;orthogonalLoop=1;jettySize=auto;html=1;" parent="1" source="lSefk6oyLwJzMAvR96mR-11" target="lSefk6oyLwJzMAvR96mR-13" edge="1">
                    <mxGeometry relative="1" as="geometry"/>
                </mxCell>
                <mxCell id="lSefk6oyLwJzMAvR96mR-11" value="State : Set status" style="shape=parallelogram;perimeter=parallelogramPerimeter;whiteSpace=wrap;html=1;fixedSize=1;fontFamily=Helvetica;fontSize=12;align=center;fillColor=#ffffff;strokeColor=#0000FF;fontColor=#0000FF;" parent="1" vertex="1">
                    <mxGeometry x="870" y="300" width="120" height="60" as="geometry"/>
                </mxCell>
                <mxCell id="lSefk6oyLwJzMAvR96mR-13" value="State$Refreshed" style="whiteSpace=wrap;html=1;rounded=0;" parent="1" vertex="1">
                    <mxGeometry x="1070" y="300" width="120" height="60" as="geometry"/>
                </mxCell>
                <mxCell id="lSefk6oyLwJzMAvR96mR-22" value="ACK REINIT" style="edgeStyle=orthogonalEdgeStyle;rounded=0;orthogonalLoop=1;jettySize=auto;html=1;exitX=0.5;exitY=0;exitDx=0;exitDy=0;strokeColor=#FF0000;fontColor=#FF0000;entryX=0;entryY=0.5;entryDx=0;entryDy=0;" parent="1" source="lSefk6oyLwJzMAvR96mR-21" target="lSefk6oyLwJzMAvR96mR-15" edge="1">
                    <mxGeometry x="0.4419" relative="1" as="geometry">
                        <mxPoint x="10" y="260" as="sourcePoint"/>
                        <mxPoint x="330" y="361" as="targetPoint"/>
                        <Array as="points">
                            <mxPoint x="-100" y="240"/>
                        </Array>
                        <mxPoint as="offset"/>
                    </mxGeometry>
                </mxCell>
                <mxCell id="lSefk6oyLwJzMAvR96mR-73" style="edgeStyle=orthogonalEdgeStyle;rounded=0;orthogonalLoop=1;jettySize=auto;html=1;entryX=0;entryY=0.5;entryDx=0;entryDy=0;" parent="1" source="lSefk6oyLwJzMAvR96mR-29" target="lSefk6oyLwJzMAvR96mR-90" edge="1">
                    <mxGeometry relative="1" as="geometry"/>
                </mxCell>
                <mxCell id="lSefk6oyLwJzMAvR96mR-21" value="Create MetricHandler" style="shape=parallelogram;perimeter=parallelogramPerimeter;whiteSpace=wrap;html=1;fixedSize=1;fontFamily=Helvetica;fontSize=12;align=center;fillColor=#ffffff;strokeColor=#0000FF;fontColor=#0000FF;" parent="1" vertex="1">
                    <mxGeometry x="-160" y="300" width="120" height="60" as="geometry"/>
                </mxCell>
                <mxCell id="lSefk6oyLwJzMAvR96mR-24" style="edgeStyle=orthogonalEdgeStyle;rounded=0;orthogonalLoop=1;jettySize=auto;html=1;entryX=0;entryY=0.5;entryDx=0;entryDy=0;" parent="1" source="lSefk6oyLwJzMAvR96mR-23" target="lSefk6oyLwJzMAvR96mR-21" edge="1">
                    <mxGeometry relative="1" as="geometry"/>
                </mxCell>
                <mxCell id="lSefk6oyLwJzMAvR96mR-23" value="OnDataReceived" style="rounded=0;whiteSpace=wrap;html=1;" parent="1" vertex="1">
                    <mxGeometry x="-360" y="300" width="120" height="60" as="geometry"/>
                </mxCell>
                <mxCell id="lSefk6oyLwJzMAvR96mR-34" value="" style="edgeStyle=orthogonalEdgeStyle;rounded=0;orthogonalLoop=1;jettySize=auto;html=1;" parent="1" source="lSefk6oyLwJzMAvR96mR-30" target="lSefk6oyLwJzMAvR96mR-33" edge="1">
                    <mxGeometry relative="1" as="geometry"/>
                </mxCell>
                <mxCell id="lSefk6oyLwJzMAvR96mR-30" value="OnRender" style="rounded=0;whiteSpace=wrap;html=1;" parent="1" vertex="1">
                    <mxGeometry x="-360" y="680" width="120" height="60" as="geometry"/>
                </mxCell>
                <mxCell id="lSefk6oyLwJzMAvR96mR-58" value="flowchart" style="edgeStyle=orthogonalEdgeStyle;rounded=0;orthogonalLoop=1;jettySize=auto;html=1;entryX=0;entryY=0.5;entryDx=0;entryDy=0;" parent="1" source="lSefk6oyLwJzMAvR96mR-33" target="lSefk6oyLwJzMAvR96mR-57" edge="1">
                    <mxGeometry relative="1" as="geometry"/>
                </mxCell>
                <mxCell id="lSefk6oyLwJzMAvR96mR-33" value="refresh Flowchart" style="shape=parallelogram;perimeter=parallelogramPerimeter;whiteSpace=wrap;html=1;fixedSize=1;fontFamily=Helvetica;fontSize=12;align=center;fillColor=#ffffff;strokeColor=#0000FF;fontColor=#0000FF;" parent="1" vertex="1">
                    <mxGeometry x="-160" y="680" width="120" height="60" as="geometry"/>
                </mxCell>
                <mxCell id="sZPJPHq9Ar7SICgxoAq_-8" style="edgeStyle=orthogonalEdgeStyle;rounded=0;orthogonalLoop=1;jettySize=auto;html=1;entryX=0;entryY=0.5;entryDx=0;entryDy=0;" parent="1" source="lSefk6oyLwJzMAvR96mR-35" target="sZPJPHq9Ar7SICgxoAq_-6" edge="1">
                    <mxGeometry relative="1" as="geometry"/>
                </mxCell>
                <mxCell id="lSefk6oyLwJzMAvR96mR-35" value="Flowchart$Changed" style="rounded=0;whiteSpace=wrap;html=1;" parent="1" vertex="1">
                    <mxGeometry x="-160" y="820" width="120" height="60" as="geometry"/>
                </mxCell>
                <mxCell id="lSefk6oyLwJzMAvR96mR-46" value="" style="edgeStyle=orthogonalEdgeStyle;rounded=0;orthogonalLoop=1;jettySize=auto;html=1;" parent="1" source="lSefk6oyLwJzMAvR96mR-28" target="lSefk6oyLwJzMAvR96mR-45" edge="1">
                    <mxGeometry relative="1" as="geometry"/>
                </mxCell>
                <mxCell id="sZPJPHq9Ar7SICgxoAq_-11" style="edgeStyle=orthogonalEdgeStyle;rounded=0;orthogonalLoop=1;jettySize=auto;html=1;exitX=1;exitY=1;exitDx=0;exitDy=0;" parent="1" source="lSefk6oyLwJzMAvR96mR-44" target="lSefk6oyLwJzMAvR96mR-49" edge="1">
                    <mxGeometry relative="1" as="geometry">
                        <Array as="points">
                            <mxPoint x="180" y="1011"/>
                            <mxPoint x="180" y="1060"/>
                            <mxPoint x="100" y="1060"/>
                        </Array>
                    </mxGeometry>
                </mxCell>
                <mxCell id="lSefk6oyLwJzMAvR96mR-44" value="Destroy StateHandler" style="shape=parallelogram;perimeter=parallelogramPerimeter;whiteSpace=wrap;html=1;fixedSize=1;fontFamily=Helvetica;fontSize=12;align=center;fillColor=#ffffff;strokeColor=#0000FF;fontColor=#0000FF;" parent="1" vertex="1">
                    <mxGeometry x="40" y="960" width="120" height="60" as="geometry"/>
                </mxCell>
                <mxCell id="lSefk6oyLwJzMAvR96mR-64" value="" style="edgeStyle=orthogonalEdgeStyle;rounded=0;orthogonalLoop=1;jettySize=auto;html=1;" parent="1" source="lSefk6oyLwJzMAvR96mR-45" target="lSefk6oyLwJzMAvR96mR-63" edge="1">
                    <mxGeometry relative="1" as="geometry"/>
                </mxCell>
                <mxCell id="lSefk6oyLwJzMAvR96mR-45" value="Destroy State" style="shape=parallelogram;perimeter=parallelogramPerimeter;whiteSpace=wrap;html=1;fixedSize=1;fontFamily=Helvetica;fontSize=12;align=center;fillColor=#ffffff;strokeColor=#0000FF;fontColor=#0000FF;" parent="1" vertex="1">
                    <mxGeometry x="240" y="960" width="120" height="60" as="geometry"/>
                </mxCell>
                <mxCell id="lSefk6oyLwJzMAvR96mR-80" style="edgeStyle=orthogonalEdgeStyle;rounded=0;orthogonalLoop=1;jettySize=auto;html=1;entryX=0;entryY=0.5;entryDx=0;entryDy=0;strokeColor=#000000;" parent="1" source="lSefk6oyLwJzMAvR96mR-41" target="lSefk6oyLwJzMAvR96mR-79" edge="1">
                    <mxGeometry relative="1" as="geometry"/>
                </mxCell>
                <mxCell id="lSefk6oyLwJzMAvR96mR-85" style="edgeStyle=orthogonalEdgeStyle;rounded=0;orthogonalLoop=1;jettySize=auto;html=1;entryX=0.5;entryY=0;entryDx=0;entryDy=0;strokeColor=#FF0000;fontColor=#FF0000;exitX=0.5;exitY=1;exitDx=0;exitDy=0;" parent="1" source="lSefk6oyLwJzMAvR96mR-49" target="lSefk6oyLwJzMAvR96mR-88" edge="1">
                    <mxGeometry relative="1" as="geometry">
                        <Array as="points">
                            <mxPoint x="100" y="1180"/>
                            <mxPoint x="100" y="1180"/>
                        </Array>
                    </mxGeometry>
                </mxCell>
                <mxCell id="lSefk6oyLwJzMAvR96mR-86" value="ACK REINIT" style="edgeLabel;html=1;align=center;verticalAlign=middle;resizable=0;points=[];fontColor=#FF0000;" parent="lSefk6oyLwJzMAvR96mR-85" vertex="1" connectable="0">
                    <mxGeometry x="-0.5265" y="-1" relative="1" as="geometry">
                        <mxPoint x="1" y="11.18" as="offset"/>
                    </mxGeometry>
                </mxCell>
                <mxCell id="lSefk6oyLwJzMAvR96mR-49" value="Create StateHandler" style="shape=parallelogram;perimeter=parallelogramPerimeter;whiteSpace=wrap;html=1;fixedSize=1;fontFamily=Helvetica;fontSize=12;align=center;fillColor=#ffffff;strokeColor=#0000FF;fontColor=#0000FF;" parent="1" vertex="1">
                    <mxGeometry x="40" y="1100" width="120" height="60" as="geometry"/>
                </mxCell>
                <mxCell id="lSefk6oyLwJzMAvR96mR-55" value="" style="edgeStyle=orthogonalEdgeStyle;rounded=0;orthogonalLoop=1;jettySize=auto;html=1;dashed=1;" parent="1" source="lSefk6oyLwJzMAvR96mR-51" target="lSefk6oyLwJzMAvR96mR-54" edge="1">
                    <mxGeometry relative="1" as="geometry"/>
                </mxCell>
                <mxCell id="lSefk6oyLwJzMAvR96mR-51" value="Rule : Remove" style="shape=parallelogram;perimeter=parallelogramPerimeter;whiteSpace=wrap;html=1;fixedSize=1;fontFamily=Helvetica;fontSize=12;align=center;fillColor=#ffffff;strokeColor=#0000FF;fontColor=#0000FF;" parent="1" vertex="1">
                    <mxGeometry x="-360" y="-120" width="120" height="60" as="geometry"/>
                </mxCell>
                <mxCell id="lSefk6oyLwJzMAvR96mR-53" style="edgeStyle=orthogonalEdgeStyle;rounded=0;orthogonalLoop=1;jettySize=auto;html=1;entryX=0;entryY=0.5;entryDx=0;entryDy=0;dashed=1;" parent="1" source="lSefk6oyLwJzMAvR96mR-52" target="lSefk6oyLwJzMAvR96mR-51" edge="1">
                    <mxGeometry relative="1" as="geometry"/>
                </mxCell>
                <mxCell id="lSefk6oyLwJzMAvR96mR-87" style="edgeStyle=orthogonalEdgeStyle;rounded=0;orthogonalLoop=1;jettySize=auto;html=1;entryX=0.5;entryY=0;entryDx=0;entryDy=0;fontColor=#0000FF;dashed=1;" parent="1" source="lSefk6oyLwJzMAvR96mR-52" target="lSefk6oyLwJzMAvR96mR-76" edge="1">
                    <mxGeometry relative="1" as="geometry">
                        <Array as="points">
                            <mxPoint x="-500" y="-30"/>
                            <mxPoint x="-300" y="-30"/>
                        </Array>
                    </mxGeometry>
                </mxCell>
                <mxCell id="lSefk6oyLwJzMAvR96mR-52" value="Actor" style="shape=umlActor;verticalLabelPosition=bottom;verticalAlign=top;html=1;outlineConnect=0;" parent="1" vertex="1">
                    <mxGeometry x="-515" y="-120" width="30" height="60" as="geometry"/>
                </mxCell>
                <mxCell id="lSefk6oyLwJzMAvR96mR-56" value="Rule" style="edgeStyle=orthogonalEdgeStyle;rounded=0;orthogonalLoop=1;jettySize=auto;html=1;entryX=0;entryY=0.5;entryDx=0;entryDy=0;dashed=1;" parent="1" source="lSefk6oyLwJzMAvR96mR-54" target="6" edge="1">
                    <mxGeometry relative="1" as="geometry"/>
                </mxCell>
                <mxCell id="lSefk6oyLwJzMAvR96mR-54" value="Rule$destroyed" style="whiteSpace=wrap;html=1;rounded=0;" parent="1" vertex="1">
                    <mxGeometry x="-160" y="-120" width="120" height="60" as="geometry"/>
                </mxCell>
                <mxCell id="lSefk6oyLwJzMAvR96mR-57" value="flowchart$refreshed" style="rounded=0;whiteSpace=wrap;html=1;" parent="1" vertex="1">
                    <mxGeometry x="40" y="680" width="120" height="60" as="geometry"/>
                </mxCell>
                <mxCell id="lSefk6oyLwJzMAvR96mR-60" style="edgeStyle=orthogonalEdgeStyle;rounded=0;orthogonalLoop=1;jettySize=auto;html=1;entryX=0;entryY=0.5;entryDx=0;entryDy=0;" parent="1" source="lSefk6oyLwJzMAvR96mR-59" target="lSefk6oyLwJzMAvR96mR-23" edge="1">
                    <mxGeometry relative="1" as="geometry"/>
                </mxCell>
                <mxCell id="lSefk6oyLwJzMAvR96mR-59" value="" style="shape=collate;whiteSpace=wrap;html=1;" parent="1" vertex="1">
                    <mxGeometry x="-520" y="310" width="40" height="40" as="geometry"/>
                </mxCell>
                <mxCell id="lSefk6oyLwJzMAvR96mR-62" style="edgeStyle=orthogonalEdgeStyle;rounded=0;orthogonalLoop=1;jettySize=auto;html=1;entryX=0;entryY=0.5;entryDx=0;entryDy=0;" parent="1" source="lSefk6oyLwJzMAvR96mR-61" target="lSefk6oyLwJzMAvR96mR-30" edge="1">
                    <mxGeometry relative="1" as="geometry"/>
                </mxCell>
                <mxCell id="lSefk6oyLwJzMAvR96mR-61" value="" style="shape=collate;whiteSpace=wrap;html=1;" parent="1" vertex="1">
                    <mxGeometry x="-520" y="690" width="40" height="40" as="geometry"/>
                </mxCell>
                <mxCell id="lSefk6oyLwJzMAvR96mR-63" value="state$destroyed" style="whiteSpace=wrap;html=1;rounded=0;" parent="1" vertex="1">
                    <mxGeometry x="440" y="960" width="120" height="60" as="geometry"/>
                </mxCell>
                <mxCell id="lSefk6oyLwJzMAvR96mR-74" value="Rule$changed" style="rounded=0;whiteSpace=wrap;html=1;" parent="1" vertex="1">
                    <mxGeometry x="-160" y="20" width="120" height="60" as="geometry"/>
                </mxCell>
                <mxCell id="lSefk6oyLwJzMAvR96mR-77" style="edgeStyle=orthogonalEdgeStyle;rounded=0;orthogonalLoop=1;jettySize=auto;html=1;entryX=0;entryY=0.5;entryDx=0;entryDy=0;strokeColor=#000000;" parent="1" source="lSefk6oyLwJzMAvR96mR-76" target="lSefk6oyLwJzMAvR96mR-74" edge="1">
                    <mxGeometry relative="1" as="geometry"/>
                </mxCell>
                <mxCell id="lSefk6oyLwJzMAvR96mR-76" value="Rule : Add/change" style="shape=parallelogram;perimeter=parallelogramPerimeter;whiteSpace=wrap;html=1;fixedSize=1;fontFamily=Helvetica;fontSize=12;align=center;fillColor=#ffffff;strokeColor=#0000FF;fontColor=#0000FF;" parent="1" vertex="1">
                    <mxGeometry x="-360" y="20" width="120" height="60" as="geometry"/>
                </mxCell>
                <mxCell id="lSefk6oyLwJzMAvR96mR-82" value="State" style="edgeStyle=orthogonalEdgeStyle;rounded=0;orthogonalLoop=1;jettySize=auto;html=1;entryX=0;entryY=0.5;entryDx=0;entryDy=0;strokeColor=#000000;" parent="1" source="lSefk6oyLwJzMAvR96mR-79" target="lSefk6oyLwJzMAvR96mR-81" edge="1">
                    <mxGeometry relative="1" as="geometry"/>
                </mxCell>
                <mxCell id="lSefk6oyLwJzMAvR96mR-79" value="Create State" style="shape=parallelogram;perimeter=parallelogramPerimeter;whiteSpace=wrap;html=1;fixedSize=1;fontFamily=Helvetica;fontSize=12;align=center;fillColor=#ffffff;strokeColor=#0000FF;fontColor=#0000FF;" parent="1" vertex="1">
                    <mxGeometry x="240" y="1100" width="120" height="60" as="geometry"/>
                </mxCell>
                <mxCell id="lSefk6oyLwJzMAvR96mR-81" value="state$changed" style="whiteSpace=wrap;html=1;rounded=0;" parent="1" vertex="1">
                    <mxGeometry x="440" y="1100" width="120" height="60" as="geometry"/>
                </mxCell>
                <mxCell id="lSefk6oyLwJzMAvR96mR-84" style="edgeStyle=orthogonalEdgeStyle;rounded=0;orthogonalLoop=1;jettySize=auto;html=1;entryX=0;entryY=0.5;entryDx=0;entryDy=0;strokeColor=#000000;" parent="1" source="lSefk6oyLwJzMAvR96mR-83" target="lSefk6oyLwJzMAvR96mR-76" edge="1">
                    <mxGeometry relative="1" as="geometry"/>
                </mxCell>
                <mxCell id="lSefk6oyLwJzMAvR96mR-83" value="RuleHandler : Change" style="shape=parallelogram;perimeter=parallelogramPerimeter;whiteSpace=wrap;html=1;fixedSize=1;fontFamily=Helvetica;fontSize=12;align=center;fillColor=#ffffff;strokeColor=#0000FF;fontColor=#0000FF;" parent="1" vertex="1">
                    <mxGeometry x="-560" y="20" width="120" height="60" as="geometry"/>
                </mxCell>
                <mxCell id="lSefk6oyLwJzMAvR96mR-18" value="null" style="edgeStyle=orthogonalEdgeStyle;rounded=0;orthogonalLoop=1;jettySize=auto;html=1;strokeColor=#0000FF;fontColor=#0000FF;entryX=0.5;entryY=1;entryDx=0;entryDy=0;" parent="1" source="lSefk6oyLwJzMAvR96mR-88" target="lSefk6oyLwJzMAvR96mR-83" edge="1">
                    <mxGeometry relative="1" as="geometry">
                        <Array as="points">
                            <mxPoint x="100" y="1310"/>
                            <mxPoint x="-610" y="1310"/>
                            <mxPoint x="-610" y="120"/>
                            <mxPoint x="-500" y="120"/>
                        </Array>
                    </mxGeometry>
                </mxCell>
                <mxCell id="lSefk6oyLwJzMAvR96mR-88" value="state$Created" style="whiteSpace=wrap;html=1;rounded=0;" parent="1" vertex="1">
                    <mxGeometry x="40" y="1220" width="120" height="60" as="geometry"/>
                </mxCell>
                <mxCell id="lSefk6oyLwJzMAvR96mR-91" style="edgeStyle=orthogonalEdgeStyle;rounded=0;orthogonalLoop=1;jettySize=auto;html=1;entryX=0;entryY=0.5;entryDx=0;entryDy=0;strokeColor=#000000;fontColor=#0000FF;" parent="1" source="lSefk6oyLwJzMAvR96mR-90" target="lSefk6oyLwJzMAvR96mR-6" edge="1">
                    <mxGeometry relative="1" as="geometry">
                        <Array as="points">
                            <mxPoint x="220" y="330"/>
                            <mxPoint x="220" y="330"/>
                        </Array>
                    </mxGeometry>
                </mxCell>
                <mxCell id="lSefk6oyLwJzMAvR96mR-90" value="init Metric" style="shape=parallelogram;perimeter=parallelogramPerimeter;whiteSpace=wrap;html=1;fixedSize=1;fontFamily=Helvetica;fontSize=12;align=center;fillColor=#ffffff;strokeColor=#0000FF;fontColor=#0000FF;" parent="1" vertex="1">
                    <mxGeometry x="40" y="300" width="120" height="60" as="geometry"/>
                </mxCell>
                <mxCell id="lSefk6oyLwJzMAvR96mR-16" style="edgeStyle=orthogonalEdgeStyle;rounded=0;orthogonalLoop=1;jettySize=auto;html=1;strokeColor=#0000FF;fontColor=#0000FF;entryX=0.5;entryY=0;entryDx=0;entryDy=0;" parent="1" source="lSefk6oyLwJzMAvR96mR-15" target="lSefk6oyLwJzMAvR96mR-7" edge="1">
                    <mxGeometry relative="1" as="geometry">
                        <mxPoint x="400" y="240" as="targetPoint"/>
                    </mxGeometry>
                </mxCell>
                <mxCell id="lSefk6oyLwJzMAvR96mR-17" value="Null" style="edgeLabel;html=1;align=center;verticalAlign=middle;resizable=0;points=[];fontColor=#0000FF;" parent="lSefk6oyLwJzMAvR96mR-16" vertex="1" connectable="0">
                    <mxGeometry x="0.015" y="4" relative="1" as="geometry">
                        <mxPoint as="offset"/>
                    </mxGeometry>
                </mxCell>
                <mxCell id="lSefk6oyLwJzMAvR96mR-15" value="Metric$Init" style="rounded=0;whiteSpace=wrap;html=1;" parent="1" vertex="1">
                    <mxGeometry x="50" y="210" width="120" height="60" as="geometry"/>
                </mxCell>
                <mxCell id="lSefk6oyLwJzMAvR96mR-26" style="edgeStyle=orthogonalEdgeStyle;rounded=0;orthogonalLoop=1;jettySize=auto;html=1;entryX=0;entryY=0.5;entryDx=0;entryDy=0;fontColor=#0000FF;" parent="1" source="lSefk6oyLwJzMAvR96mR-25" target="lSefk6oyLwJzMAvR96mR-35" edge="1">
                    <mxGeometry relative="1" as="geometry"/>
                </mxCell>
                <mxCell id="lSefk6oyLwJzMAvR96mR-27" style="edgeStyle=orthogonalEdgeStyle;rounded=0;orthogonalLoop=1;jettySize=auto;html=1;entryX=0.5;entryY=1;entryDx=0;entryDy=0;strokeColor=#000000;fontColor=#0000FF;exitX=0.5;exitY=1;exitDx=0;exitDy=0;" parent="1" source="lSefk6oyLwJzMAvR96mR-25" target="lSefk6oyLwJzMAvR96mR-33" edge="1">
                    <mxGeometry relative="1" as="geometry">
                        <Array as="points">
                            <mxPoint x="-300" y="920"/>
                            <mxPoint x="-380" y="920"/>
                            <mxPoint x="-380" y="780"/>
                            <mxPoint x="-100" y="780"/>
                        </Array>
                    </mxGeometry>
                </mxCell>
                <mxCell id="lSefk6oyLwJzMAvR96mR-25" value="Add/change flowchart/graph" style="shape=parallelogram;perimeter=parallelogramPerimeter;whiteSpace=wrap;html=1;fixedSize=1;fontFamily=Helvetica;fontSize=12;align=center;fillColor=#ffffff;strokeColor=#0000FF;fontColor=#0000FF;" parent="1" vertex="1">
                    <mxGeometry x="-360" y="820" width="120" height="60" as="geometry"/>
                </mxCell>
                <mxCell id="lSefk6oyLwJzMAvR96mR-29" value="" style="shape=mxgraph.bpmn.loop;html=1;outlineConnect=0;strokeColor=#0000FF;fontColor=#0000FF;" parent="1" vertex="1">
                    <mxGeometry x="-20" y="315" width="30" height="30" as="geometry"/>
                </mxCell>
                <mxCell id="lSefk6oyLwJzMAvR96mR-31" style="edgeStyle=orthogonalEdgeStyle;rounded=0;orthogonalLoop=1;jettySize=auto;html=1;entryX=0;entryY=0.5;entryDx=0;entryDy=0;" parent="1" source="lSefk6oyLwJzMAvR96mR-21" target="lSefk6oyLwJzMAvR96mR-29" edge="1">
                    <mxGeometry relative="1" as="geometry">
                        <mxPoint x="-50" y="330" as="sourcePoint"/>
                        <mxPoint x="50" y="330" as="targetPoint"/>
                    </mxGeometry>
                </mxCell>
                <mxCell id="lSefk6oyLwJzMAvR96mR-28" value="" style="shape=mxgraph.bpmn.loop;html=1;outlineConnect=0;strokeColor=#0000FF;fontColor=#0000FF;" parent="1" vertex="1">
                    <mxGeometry x="180" y="975" width="30" height="30" as="geometry"/>
                </mxCell>
                <mxCell id="lSefk6oyLwJzMAvR96mR-36" value="" style="edgeStyle=orthogonalEdgeStyle;rounded=0;orthogonalLoop=1;jettySize=auto;html=1;" parent="1" source="lSefk6oyLwJzMAvR96mR-44" target="lSefk6oyLwJzMAvR96mR-28" edge="1">
                    <mxGeometry relative="1" as="geometry">
                        <mxPoint x="150" y="990" as="sourcePoint"/>
                        <mxPoint x="250" y="990" as="targetPoint"/>
                    </mxGeometry>
                </mxCell>
                <mxCell id="lSefk6oyLwJzMAvR96mR-41" value="" style="shape=mxgraph.bpmn.loop;html=1;outlineConnect=0;strokeColor=#0000FF;fontColor=#0000FF;" parent="1" vertex="1">
                    <mxGeometry x="180" y="1115" width="30" height="30" as="geometry"/>
                </mxCell>
                <mxCell id="lSefk6oyLwJzMAvR96mR-42" style="edgeStyle=orthogonalEdgeStyle;rounded=0;orthogonalLoop=1;jettySize=auto;html=1;entryX=0;entryY=0.5;entryDx=0;entryDy=0;strokeColor=#000000;" parent="1" source="lSefk6oyLwJzMAvR96mR-49" target="lSefk6oyLwJzMAvR96mR-41" edge="1">
                    <mxGeometry relative="1" as="geometry">
                        <mxPoint x="150" y="1130" as="sourcePoint"/>
                        <mxPoint x="250" y="1130" as="targetPoint"/>
                    </mxGeometry>
                </mxCell>
                <mxCell id="lSefk6oyLwJzMAvR96mR-50" style="edgeStyle=orthogonalEdgeStyle;rounded=0;orthogonalLoop=1;jettySize=auto;html=1;entryX=0.5;entryY=0;entryDx=0;entryDy=0;fontColor=#0000FF;" parent="1" source="lSefk6oyLwJzMAvR96mR-43" target="lSefk6oyLwJzMAvR96mR-47" edge="1">
                    <mxGeometry relative="1" as="geometry"/>
                </mxCell>
                <mxCell id="lSefk6oyLwJzMAvR96mR-43" value="Rule :&lt;br&gt;Add/change" style="shape=parallelogram;perimeter=parallelogramPerimeter;whiteSpace=wrap;html=1;fixedSize=1;fontFamily=Helvetica;fontSize=12;align=center;fillColor=#ffffff;strokeColor=#0000FF;fontColor=#0000FF;" parent="1" vertex="1">
                    <mxGeometry x="-360" y="20" width="120" height="60" as="geometry"/>
                </mxCell>
                <mxCell id="lSefk6oyLwJzMAvR96mR-65" style="edgeStyle=orthogonalEdgeStyle;rounded=0;orthogonalLoop=1;jettySize=auto;html=1;entryX=0.5;entryY=0;entryDx=0;entryDy=0;strokeColor=#000000;fontColor=#0000FF;" parent="1" source="lSefk6oyLwJzMAvR96mR-47" target="lSefk6oyLwJzMAvR96mR-9" edge="1">
                    <mxGeometry relative="1" as="geometry"/>
                </mxCell>
                <mxCell id="lSefk6oyLwJzMAvR96mR-47" value="Rule :&lt;br&gt;Update Metrics" style="shape=parallelogram;perimeter=parallelogramPerimeter;whiteSpace=wrap;html=1;fixedSize=1;fontFamily=Helvetica;fontSize=12;align=center;fillColor=#ffffff;strokeColor=#0000FF;fontColor=#0000FF;" parent="1" vertex="1">
                    <mxGeometry x="-360" y="120" width="120" height="60" as="geometry"/>
                </mxCell>
                <mxCell id="lSefk6oyLwJzMAvR96mR-66" value="OnGraphOther" style="rounded=0;whiteSpace=wrap;html=1;strokeColor=#FF0000;" parent="1" vertex="1">
                    <mxGeometry x="-360" y="510" width="120" height="60" as="geometry"/>
                </mxCell>
                <mxCell id="lSefk6oyLwJzMAvR96mR-67" style="edgeStyle=orthogonalEdgeStyle;rounded=0;orthogonalLoop=1;jettySize=auto;html=1;entryX=0;entryY=0.5;entryDx=0;entryDy=0;strokeColor=#FF0000;" parent="1" source="lSefk6oyLwJzMAvR96mR-68" target="lSefk6oyLwJzMAvR96mR-66" edge="1">
                    <mxGeometry relative="1" as="geometry"/>
                </mxCell>
                <mxCell id="lSefk6oyLwJzMAvR96mR-68" value="" style="shape=collate;whiteSpace=wrap;html=1;strokeColor=#FF0000;" parent="1" vertex="1">
                    <mxGeometry x="-520" y="520" width="40" height="40" as="geometry"/>
                </mxCell>
                <mxCell id="lSefk6oyLwJzMAvR96mR-70" value="OnVarChange" style="rounded=0;whiteSpace=wrap;html=1;strokeColor=#FF0000;" parent="1" vertex="1">
                    <mxGeometry x="-360" y="600" width="120" height="60" as="geometry"/>
                </mxCell>
                <mxCell id="lSefk6oyLwJzMAvR96mR-71" style="edgeStyle=orthogonalEdgeStyle;rounded=0;orthogonalLoop=1;jettySize=auto;html=1;entryX=0;entryY=0.5;entryDx=0;entryDy=0;strokeColor=#FF0000;" parent="1" source="lSefk6oyLwJzMAvR96mR-72" target="lSefk6oyLwJzMAvR96mR-70" edge="1">
                    <mxGeometry relative="1" as="geometry"/>
                </mxCell>
                <mxCell id="lSefk6oyLwJzMAvR96mR-72" value="" style="shape=collate;whiteSpace=wrap;html=1;strokeColor=#FF0000;" parent="1" vertex="1">
                    <mxGeometry x="-520" y="610" width="40" height="40" as="geometry"/>
                </mxCell>
                <mxCell id="2" style="edgeStyle=orthogonalEdgeStyle;rounded=0;orthogonalLoop=1;jettySize=auto;html=1;strokeColor=#0000FF;fontColor=#0000FF;exitX=1;exitY=0.5;exitDx=0;exitDy=0;entryX=0;entryY=0.5;entryDx=0;entryDy=0;" parent="1" source="lSefk6oyLwJzMAvR96mR-15" target="4" edge="1">
                    <mxGeometry relative="1" as="geometry">
                        <mxPoint x="890" y="240" as="targetPoint"/>
                        <mxPoint x="180" y="250" as="sourcePoint"/>
                    </mxGeometry>
                </mxCell>
                <mxCell id="3" value="Null" style="edgeLabel;html=1;align=center;verticalAlign=middle;resizable=0;points=[];fontColor=#0000FF;" parent="2" vertex="1" connectable="0">
                    <mxGeometry x="0.015" y="4" relative="1" as="geometry">
                        <mxPoint as="offset"/>
                    </mxGeometry>
                </mxCell>
                <mxCell id="4" value="State :&lt;br&gt;Init/prepare" style="shape=parallelogram;perimeter=parallelogramPerimeter;whiteSpace=wrap;html=1;fixedSize=1;fontFamily=Helvetica;fontSize=12;align=center;fillColor=#ffffff;strokeColor=#0000FF;fontColor=#0000FF;" parent="1" vertex="1">
                    <mxGeometry x="880" y="210" width="120" height="60" as="geometry"/>
                </mxCell>
                <mxCell id="6" value="State :&lt;br&gt;Remove rule" style="shape=parallelogram;perimeter=parallelogramPerimeter;whiteSpace=wrap;html=1;fixedSize=1;fontFamily=Helvetica;fontSize=12;align=center;fillColor=#ffffff;strokeColor=#0000FF;fontColor=#0000FF;" parent="1" vertex="1">
                    <mxGeometry x="40" y="-120" width="120" height="60" as="geometry"/>
                </mxCell>
                <mxCell id="sZPJPHq9Ar7SICgxoAq_-12" style="edgeStyle=orthogonalEdgeStyle;rounded=0;orthogonalLoop=1;jettySize=auto;html=1;entryX=0;entryY=0.5;entryDx=0;entryDy=0;" parent="1" source="sZPJPHq9Ar7SICgxoAq_-6" target="sZPJPHq9Ar7SICgxoAq_-7" edge="1">
                    <mxGeometry relative="1" as="geometry"/>
                </mxCell>
                <mxCell id="sZPJPHq9Ar7SICgxoAq_-6" value="XGraph :&lt;br&gt;Change" style="shape=parallelogram;perimeter=parallelogramPerimeter;whiteSpace=wrap;html=1;fixedSize=1;fontFamily=Helvetica;fontSize=12;align=center;fillColor=#ffffff;strokeColor=#0000FF;fontColor=#0000FF;" parent="1" vertex="1">
                    <mxGeometry x="40" y="820" width="120" height="60" as="geometry"/>
                </mxCell>
                <mxCell id="sZPJPHq9Ar7SICgxoAq_-10" value="xgraph" style="edgeStyle=orthogonalEdgeStyle;rounded=0;orthogonalLoop=1;jettySize=auto;html=1;" parent="1" source="sZPJPHq9Ar7SICgxoAq_-7" target="lSefk6oyLwJzMAvR96mR-44" edge="1">
                    <mxGeometry relative="1" as="geometry">
                        <Array as="points">
                            <mxPoint x="300" y="910"/>
                            <mxPoint x="100" y="910"/>
                        </Array>
                    </mxGeometry>
                </mxCell>
                <mxCell id="sZPJPHq9Ar7SICgxoAq_-7" value="graph$change" style="rounded=0;whiteSpace=wrap;html=1;" parent="1" vertex="1">
                    <mxGeometry x="240" y="820" width="120" height="60" as="geometry"/>
                </mxCell>
                <mxCell id="9" style="edgeStyle=orthogonalEdgeStyle;rounded=0;orthogonalLoop=1;jettySize=auto;html=1;entryX=0.5;entryY=1;entryDx=0;entryDy=0;" edge="1" parent="1" source="7" target="lSefk6oyLwJzMAvR96mR-9">
                    <mxGeometry relative="1" as="geometry"/>
                </mxCell>
                <mxCell id="10" value="Null" style="edgeLabel;html=1;align=center;verticalAlign=middle;resizable=0;points=[];" vertex="1" connectable="0" parent="9">
                    <mxGeometry x="-0.0437" y="-2" relative="1" as="geometry">
                        <mxPoint as="offset"/>
                    </mxGeometry>
                </mxCell>
                <mxCell id="7" value="Metric$completed" style="rounded=0;whiteSpace=wrap;html=1;" vertex="1" parent="1">
                    <mxGeometry x="40" y="400" width="120" height="60" as="geometry"/>
                </mxCell>
                <mxCell id="8" value="ACK COMPLETE" style="edgeStyle=orthogonalEdgeStyle;rounded=0;orthogonalLoop=1;jettySize=auto;html=1;exitX=0.5;exitY=1;exitDx=0;exitDy=0;strokeColor=#FF0000;fontColor=#FF0000;entryX=0;entryY=0.5;entryDx=0;entryDy=0;" edge="1" parent="1" source="lSefk6oyLwJzMAvR96mR-21" target="7">
                    <mxGeometry x="0.4419" relative="1" as="geometry">
                        <mxPoint x="-90" y="310" as="sourcePoint"/>
                        <mxPoint x="60" y="250" as="targetPoint"/>
                        <Array as="points">
                            <mxPoint x="-90" y="360"/>
                            <mxPoint x="-90" y="430"/>
                        </Array>
                        <mxPoint as="offset"/>
                    </mxGeometry>
                </mxCell>
            </root>
        </mxGraphModel>
    </diagram>
</mxfile>